<?xml version="1.0" standalone="no"?>
<!DOCTYPE svg PUBLIC "-//W3C//DTD SVG 20010904//EN"
 "http://www.w3.org/TR/2001/REC-SVG-20010904/DTD/svg10.dtd">
<svg version="1.0" xmlns="http://www.w3.org/2000/svg"
 width="512.000000pt" height="512.000000pt" viewBox="0 0 512.000000 512.000000"
 preserveAspectRatio="xMidYMid meet">
<metadata>
Created by potrace 1.14, written by Peter Selinger 2001-2017
</metadata>
<g transform="translate(0.000000,512.000000) scale(0.100000,-0.100000)"
fill="#000000" stroke="none">
<path d="M2370 5113 c-610 -51 -1198 -333 -1635 -785 -271 -280 -479 -616
-598 -968 -38 -112 -81 -269 -91 -335 -4 -22 -8 -47 -11 -55 -5 -18 -14 -90
-25 -190 -8 -79 -5 -400 4 -460 9 -58 16 -103 22 -145 15 -102 90 -360 133
-460 5 -11 19 -45 31 -75 12 -30 35 -81 51 -114 16 -32 29 -60 29 -62 0 -2
-45 -4 -100 -4 -54 0 -110 -5 -123 -11 -36 -16 -60 -64 -53 -105 17 -87 240
-320 418 -437 l111 -72 -236 -5 -236 -5 -31 -30 c-27 -25 -31 -36 -27 -67 11
-96 223 -323 431 -462 81 -53 216 -124 301 -156 33 -12 69 -26 80 -31 11 -5
56 -18 100 -29 192 -48 172 -48 1645 -48 1382 -1 1481 1 1579 33 12 3 33 8 48
11 63 11 215 69 328 125 159 79 287 171 415 299 118 118 180 203 187 255 4 30
0 40 -30 70 l-35 35 -238 0 -238 0 58 35 c158 95 336 255 429 384 52 72 64
110 48 150 -20 48 -57 61 -170 61 -56 0 -101 2 -101 5 0 3 13 31 29 63 96 191
189 476 217 662 3 19 7 46 10 60 12 61 14 96 18 275 2 105 0 222 -5 260 -17
145 -20 170 -24 185 -2 8 -7 29 -9 45 -16 92 -46 203 -90 340 -45 142 -167
395 -258 538 -48 75 -148 216 -173 244 -5 6 -26 30 -45 54 -308 376 -791 694
-1260 827 -164 47 -201 54 -420 88 -40 6 -406 11 -460 7z m165 -202 c-11 -5
-69 -28 -130 -51 -432 -165 -843 -475 -1115 -841 -23 -31 -86 -102 -171 -194
-217 -233 -407 -623 -458 -940 -7 -38 -14 -86 -18 -105 -8 -51 -9 -355 0 -425
34 -277 152 -581 324 -833 l43 -62 -251 2 -252 3 -53 105 c-90 176 -162 373
-203 555 -40 177 -46 248 -45 480 2 154 7 218 27 335 83 475 307 909 648 1257
282 288 610 493 984 613 55 17 107 33 115 35 8 2 60 12 115 24 136 28 149 30
235 37 41 4 76 7 77 8 1 1 35 2 75 3 49 2 67 0 53 -6z"/>
</g>
</svg>
